<?xml version="1.0" encoding="UTF-8"?>
<svg xmlns="http://www.w3.org/2000/svg" xmlns:xlink="http://www.w3.org/1999/xlink" width="516.923438pt" height="269.908915pt" viewBox="0 0 516.923438 269.908915" version="1.2">
<defs>
<clipPath id="clip1">
  <path d="M 0.0507812 0 L 516.796875 0 L 516.796875 269.816406 L 0.0507812 269.816406 Z M 0.0507812 0 "/>
</clipPath>
<clipPath id="clip2">
  <path d="M 47.34375 14.9375 L 500.5625 14.9375 L 500.5625 118.667969 L 47.34375 118.667969 Z M 47.34375 14.9375 "/>
</clipPath>
<clipPath id="clip3">
  <path d="M 47.34375 139.414062 L 500.5625 139.414062 L 500.5625 243.140625 L 47.34375 243.140625 Z M 47.34375 139.414062 "/>
</clipPath>
</defs>
<g id="surface1">
<g clip-path="url(#clip1)" clip-rule="nonzero">
<path style=" stroke:none;fill-rule:nonzero;fill:rgb(100%,100%,100%);fill-opacity:1;" d="M 0.0507812 269.816406 L 516.796875 269.816406 L 516.796875 0 L 0.0507812 0 Z M 0.0507812 269.816406 "/>
</g>
<g clip-path="url(#clip2)" clip-rule="nonzero">
<path style="fill:none;stroke-width:1;stroke-linecap:square;stroke-linejoin:round;stroke:rgb(0%,0%,100%);stroke-opacity:1;stroke-miterlimit:10;" d="M 47.310787 203.085591 L 137.985907 203.085591 L 138.892463 254.864778 L 139.799019 254.55608 L 140.705575 254.048096 L 141.61213 253.336919 L 142.518686 252.426455 L 143.425242 251.324521 L 145.238354 248.550148 L 147.051465 245.056782 L 148.864577 240.903037 L 150.677689 236.155341 L 152.4908 230.884032 L 155.214375 222.181877 L 158.840599 209.587785 L 166.093045 183.985398 L 168.812713 175.283243 L 170.625824 170.011934 L 172.438936 165.264239 L 174.255955 161.110494 L 176.069067 157.621035 L 177.882179 154.846662 L 178.788734 153.74082 L 179.69529 152.830356 L 180.601846 152.119179 L 181.508402 151.611195 L 182.414958 151.302497 L 183.321514 151.200901 L 184.228069 151.302497 L 185.134625 151.611195 L 186.041181 152.119179 L 186.947737 152.830356 L 187.854293 153.74082 L 188.760848 154.846662 L 190.57396 157.621035 L 192.390979 161.110494 L 194.204091 165.264239 L 196.017203 170.011934 L 197.830314 175.283243 L 200.549982 183.985398 L 204.176205 196.583398 L 211.432559 222.181877 L 214.152227 230.884032 L 215.965338 236.155341 L 217.77845 240.903037 L 219.591562 245.056782 L 221.404673 248.550148 L 223.217785 251.324521 L 224.124341 252.426455 L 225.030897 253.336919 L 225.937453 254.048096 L 226.844008 254.55608 L 227.754472 254.864778 L 228.661028 254.966375 L 229.567583 254.864778 L 230.474139 254.55608 L 231.380695 254.048096 L 232.287251 253.336919 L 233.193807 252.426455 L 234.100363 251.324521 L 235.913474 248.550148 L 237.726586 245.056782 L 239.539697 240.903037 L 241.352809 236.155341 L 243.165921 230.884032 L 245.889496 222.181877 L 249.515719 209.587785 L 256.768166 183.985398 L 259.487833 175.283243 L 261.300945 170.011934 L 263.114057 165.264239 L 264.931076 161.110494 L 266.744187 157.621035 L 268.557299 154.846662 L 269.463855 153.74082 L 270.370411 152.830356 L 271.276967 152.119179 L 272.183522 151.611195 L 273.090078 151.302497 L 273.996634 151.200901 L 274.90319 151.302497 L 275.809746 151.611195 L 276.716302 152.119179 L 277.622857 152.830356 L 278.529413 153.74082 L 279.435969 154.846662 L 281.249081 157.621035 L 283.0661 161.110494 L 284.879212 165.264239 L 286.692323 170.011934 L 288.505435 175.283243 L 291.225102 183.985398 L 294.851326 196.583398 L 302.10768 222.181877 L 304.827347 230.884032 L 306.640459 236.155341 L 308.453571 240.903037 L 310.266682 245.056782 L 312.079794 248.550148 L 313.892906 251.324521 L 314.799461 252.426455 L 315.706017 253.336919 L 316.612573 254.048096 L 317.519129 254.55608 L 318.425685 254.864778 L 319.336148 254.966375 L 320.242704 254.864778 L 321.14926 254.55608 L 322.055816 254.048096 L 322.962371 253.336919 L 323.868927 252.426455 L 324.775483 251.324521 L 326.588595 248.550148 L 328.401706 245.056782 L 330.214818 240.903037 L 332.02793 236.155341 L 333.841041 230.884032 L 336.560709 222.181877 L 340.19084 209.587785 L 347.443286 183.985398 L 350.162954 175.283243 L 351.976065 170.011934 L 353.789177 165.264239 L 355.606196 161.110494 L 357.419308 157.621035 L 359.23242 154.846662 L 360.138975 153.74082 L 361.045531 152.830356 L 361.952087 152.119179 L 362.858643 151.611195 L 363.765199 151.302497 L 364.671755 151.200901 L 365.57831 151.302497 L 366.484866 151.611195 L 367.391422 152.119179 L 368.297978 152.830356 L 369.204534 153.74082 L 370.11109 154.846662 L 371.924201 157.621035 L 373.74122 161.110494 L 375.554332 165.264239 L 377.367444 170.011934 L 379.180555 175.283243 L 381.900223 183.985398 L 385.526446 196.583398 L 392.7828 222.181877 L 395.502468 230.884032 L 397.315579 236.155341 L 399.128691 240.903037 L 400.941803 245.056782 L 402.754914 248.550148 L 404.568026 251.324521 L 405.474582 252.426455 L 406.381138 253.336919 L 407.287694 254.048096 L 408.194249 254.55608 L 409.100805 254.864778 L 410.011269 254.966375 L 410.917824 254.864778 L 411.82438 254.55608 L 412.730936 254.048096 L 413.637492 253.336919 L 414.544048 252.426455 L 415.450604 251.324521 L 417.263715 248.550148 L 419.076827 245.056782 L 420.889939 240.903037 L 422.70305 236.155341 L 424.516162 230.884032 L 427.235829 222.181877 L 430.86596 209.587785 L 438.118407 183.985398 L 440.838074 175.283243 L 442.651186 170.011934 L 444.464298 165.264239 L 446.281317 161.110494 L 448.094428 157.621035 L 449.90754 154.846662 L 450.814096 153.74082 L 451.720652 152.830356 L 452.627208 152.119179 L 453.533763 151.611195 L 454.440319 151.302497 L 455.346875 151.200901 L 456.253431 151.302497 L 457.159987 151.611195 L 458.066543 152.119179 L 458.973098 152.830356 L 459.879654 153.74082 L 460.78621 154.846662 L 462.599322 157.621035 L 464.412433 161.110494 L 466.229453 165.264239 L 468.042564 170.011934 L 469.855676 175.283243 L 472.575343 183.985398 L 476.201567 196.583398 L 483.457921 222.181877 L 486.177588 230.884032 L 487.9907 236.155341 L 489.803812 240.903037 L 491.616923 245.056782 L 493.430035 248.550148 L 495.243147 251.324521 L 496.149702 252.426455 L 497.056258 253.336919 L 497.962814 254.048096 L 498.86937 254.55608 L 499.775926 254.864778 " transform="matrix(0.999663,0,0,-0.999663,0.0489238,269.817862)"/>
</g>
<g clip-path="url(#clip3)" clip-rule="nonzero">
<path style="fill:none;stroke-width:1;stroke-linecap:square;stroke-linejoin:round;stroke:rgb(0%,0%,100%);stroke-opacity:1;stroke-miterlimit:10;" d="M 47.310787 94.599775 L 48.217342 109.061685 L 49.123898 120.54212 L 50.030454 127.907886 L 50.93701 130.447806 L 51.843566 127.907886 L 52.750121 120.54212 L 53.656677 109.061685 L 57.282901 48.07236 L 58.189456 36.591925 L 59.096012 29.222251 L 60.002568 26.686239 L 60.909124 29.222251 L 61.81568 36.591925 L 62.722236 48.07236 L 64.539255 78.567022 L 66.352366 109.061685 L 67.258922 120.54212 L 68.165478 127.907886 L 69.072034 130.447806 L 69.97859 127.907886 L 70.885146 120.54212 L 71.791701 109.061685 L 75.417925 48.07236 L 76.324481 36.591925 L 77.231036 29.222251 L 78.137592 26.686239 L 79.044148 29.222251 L 79.950704 36.591925 L 80.85726 48.07236 L 82.674279 78.567022 L 84.487391 109.061685 L 85.393946 120.54212 L 86.300502 127.907886 L 87.207058 130.447806 L 88.113614 127.907886 L 89.02017 120.54212 L 89.926726 109.061685 L 93.552949 48.07236 L 94.459505 36.591925 L 95.36606 29.222251 L 96.272616 26.686239 L 97.179172 29.222251 L 98.085728 36.591925 L 98.992284 48.07236 L 100.809303 78.567022 L 102.622415 109.061685 L 103.52897 120.54212 L 104.435526 127.907886 L 105.342082 130.447806 L 106.248638 127.907886 L 107.155194 120.54212 L 108.06175 109.061685 L 111.687973 48.07236 L 112.594529 36.591925 L 113.501085 29.222251 L 114.40764 26.686239 L 115.314196 29.222251 L 116.220752 36.591925 L 117.127308 48.07236 L 118.944327 78.567022 L 120.757439 109.061685 L 121.663995 120.54212 L 122.57055 127.907886 L 123.477106 130.447806 L 124.383662 127.907886 L 125.290218 120.54212 L 126.196774 109.061685 L 129.822997 48.07236 L 130.729553 36.591925 L 131.636109 29.222251 L 132.542665 26.686239 L 133.44922 29.222251 L 134.355776 36.591925 L 135.262332 48.07236 L 137.079351 78.567022 L 137.985907 94.599775 L 138.892463 115.243458 L 139.799019 127.884441 L 140.705575 129.84604 L 141.61213 120.819558 L 142.518686 102.89945 L 144.331798 57.016784 L 145.238354 38.576969 L 146.144909 28.218006 L 147.051465 27.690484 L 147.958021 36.720874 L 148.864577 53.257703 L 151.584244 113.277951 L 152.4908 125.516455 L 153.397356 130.385285 L 154.307819 127.626541 L 155.214375 118.138966 L 156.120931 103.661426 L 158.840599 52.526988 L 159.747154 39.592937 L 160.65371 30.918136 L 161.560266 26.955861 L 162.466822 27.635778 L 163.373378 32.46944 L 164.279934 40.667518 L 165.186489 51.300011 L 168.812713 99.660076 L 169.719269 109.573576 L 170.625824 117.701318 L 171.53238 123.855738 L 172.438936 127.978223 L 173.349399 130.096125 L 174.255955 130.322764 L 175.162511 128.814442 L 176.069067 125.762631 L 176.975623 121.37834 L 177.882179 115.868669 L 179.69529 102.32113 L 182.414958 78.567022 L 185.134625 54.941865 L 186.947737 41.542814 L 187.854293 36.083941 L 188.760848 31.699649 L 189.667404 28.58141 L 190.57396 26.916786 L 191.484424 26.881618 L 192.390979 28.616578 L 193.297535 32.238894 L 194.204091 37.791548 L 195.110647 45.243281 L 196.017203 54.449511 L 197.830314 76.925844 L 200.549982 112.402656 L 201.456538 121.542458 L 202.363093 127.82192 L 203.269649 130.416545 L 204.176205 128.712845 L 205.082761 122.417753 L 205.989317 111.703201 L 206.895873 97.268644 L 209.619448 46.677358 L 210.526003 34.231753 L 211.432559 27.467753 L 212.339115 27.792081 L 213.245671 35.650201 L 214.152227 50.315304 L 216.871894 110.648158 L 217.77845 124.695865 L 218.685006 130.40873 L 219.591562 126.333136 L 220.498118 112.895009 L 221.404673 92.466243 L 223.217785 47.36509 L 224.124341 32.121667 L 225.030897 26.686239 L 225.937453 32.375659 L 226.844008 48.084083 L 229.567583 115.243458 L 230.474139 127.884441 L 231.380695 129.84604 L 232.287251 120.819558 L 233.193807 102.89945 L 235.006918 57.016784 L 235.913474 38.576969 L 236.82003 28.218006 L 237.726586 27.690484 L 238.633142 36.720874 L 239.539697 53.257703 L 242.259365 113.277951 L 243.165921 125.516455 L 244.072477 130.385285 L 244.979032 127.626541 L 245.889496 118.138966 L 246.796052 103.661426 L 249.515719 52.526988 L 250.422275 39.592937 L 251.328831 30.918136 L 252.235387 26.955861 L 253.141942 27.635778 L 254.048498 32.46944 L 254.955054 40.667518 L 255.86161 51.300011 L 259.487833 99.660076 L 260.394389 109.573576 L 261.300945 117.701318 L 262.207501 123.855738 L 263.114057 127.978223 L 264.02452 130.096125 L 264.931076 130.322764 L 265.837632 128.814442 L 266.744187 125.762631 L 267.650743 121.37834 L 268.557299 115.868669 L 270.370411 102.32113 L 273.090078 78.567022 L 275.809746 54.941865 L 277.622857 41.542814 L 278.529413 36.083941 L 279.435969 31.699649 L 280.342525 28.58141 L 281.249081 26.916786 L 282.159544 26.881618 L 283.0661 28.616578 L 283.972656 32.238894 L 284.879212 37.791548 L 285.785767 45.243281 L 286.692323 54.449511 L 288.505435 76.925844 L 291.225102 112.402656 L 292.131658 121.542458 L 293.038214 127.82192 L 293.94477 130.416545 L 294.851326 128.712845 L 295.757881 122.417753 L 296.664437 111.703201 L 297.570993 97.268644 L 300.294568 46.677358 L 301.201124 34.231753 L 302.10768 27.467753 L 303.014236 27.792081 L 303.920791 35.650201 L 304.827347 50.315304 L 307.547015 110.648158 L 308.453571 124.695865 L 309.360126 130.40873 L 310.266682 126.333136 L 311.173238 112.895009 L 312.079794 92.466243 L 313.892906 47.36509 L 314.799461 32.121667 L 315.706017 26.686239 L 316.612573 32.375659 L 317.519129 48.084083 L 320.242704 115.243458 L 321.14926 127.884441 L 322.055816 129.84604 L 322.962371 120.819558 L 323.868927 102.89945 L 325.682039 57.016784 L 326.588595 38.576969 L 327.495151 28.218006 L 328.401706 27.690484 L 329.308262 36.720874 L 330.214818 53.257703 L 332.934485 113.277951 L 333.841041 125.516455 L 334.747597 130.385285 L 335.654153 127.626541 L 336.560709 118.138966 L 337.471172 103.661426 L 340.19084 52.526988 L 341.097395 39.592937 L 342.003951 30.918136 L 342.910507 26.955861 L 343.817063 27.635778 L 344.723619 32.46944 L 345.630175 40.667518 L 346.53673 51.300011 L 350.162954 99.660076 L 351.06951 109.573576 L 351.976065 117.701318 L 352.882621 123.855738 L 353.789177 127.978223 L 354.695733 130.096125 L 355.606196 130.322764 L 356.512752 128.814442 L 357.419308 125.762631 L 358.325864 121.37834 L 359.23242 115.868669 L 361.045531 102.32113 L 363.765199 78.567022 L 366.484866 54.941865 L 368.297978 41.542814 L 369.204534 36.083941 L 370.11109 31.699649 L 371.017645 28.58141 L 371.924201 26.916786 L 372.830757 26.881618 L 373.74122 28.616578 L 374.647776 32.238894 L 375.554332 37.791548 L 376.460888 45.243281 L 377.367444 54.449511 L 379.180555 76.925844 L 381.900223 112.402656 L 382.806779 121.542458 L 383.713334 127.82192 L 384.61989 130.416545 L 385.526446 128.712845 L 386.433002 122.417753 L 387.339558 111.703201 L 388.246114 97.268644 L 390.965781 46.677358 L 391.876245 34.231753 L 392.7828 27.467753 L 393.689356 27.792081 L 394.595912 35.650201 L 395.502468 50.315304 L 398.222135 110.648158 L 399.128691 124.695865 L 400.035247 130.40873 L 400.941803 126.333136 L 401.848359 112.895009 L 402.754914 92.466243 L 404.568026 47.36509 L 405.474582 32.121667 L 406.381138 26.686239 L 407.287694 32.375659 L 408.194249 48.084083 L 410.917824 115.243458 L 411.82438 127.884441 L 412.730936 129.84604 L 413.637492 120.819558 L 414.544048 102.89945 L 416.357159 57.016784 L 417.263715 38.576969 L 418.170271 28.218006 L 419.076827 27.690484 L 419.983383 36.720874 L 420.889939 53.257703 L 423.609606 113.277951 L 424.516162 125.516455 L 425.422718 130.385285 L 426.329273 127.626541 L 427.235829 118.138966 L 428.146293 103.661426 L 430.86596 52.526988 L 431.772516 39.592937 L 432.679072 30.918136 L 433.585628 26.955861 L 434.492184 27.635778 L 435.398739 32.46944 L 436.305295 40.667518 L 437.211851 51.300011 L 440.838074 99.660076 L 441.74463 109.573576 L 442.651186 117.701318 L 443.557742 123.855738 L 444.464298 127.978223 L 445.370853 130.096125 L 446.281317 130.322764 L 447.187873 128.814442 L 448.094428 125.762631 L 449.000984 121.37834 L 449.90754 115.868669 L 451.720652 102.32113 L 454.440319 78.567022 L 457.159987 54.941865 L 458.973098 41.542814 L 459.879654 36.083941 L 460.78621 31.699649 L 461.692766 28.58141 L 462.599322 26.916786 L 463.505878 26.881618 L 464.412433 28.616578 L 465.322897 32.238894 L 466.229453 37.791548 L 467.136008 45.243281 L 468.042564 54.449511 L 469.855676 76.925844 L 472.575343 112.402656 L 473.481899 121.542458 L 474.388455 127.82192 L 475.295011 130.416545 L 476.201567 128.712845 L 477.108122 122.417753 L 478.014678 111.703201 L 478.921234 97.268644 L 481.640902 46.677358 L 482.547457 34.231753 L 483.457921 27.467753 L 484.364477 27.792081 L 485.271033 35.650201 L 486.177588 50.315304 L 488.897256 110.648158 L 489.803812 124.695865 L 490.710367 130.40873 L 491.616923 126.333136 L 492.523479 112.895009 L 493.430035 92.466243 L 495.243147 47.36509 L 496.149702 32.121667 L 497.056258 26.686239 L 497.962814 32.375659 L 498.86937 48.084083 L 499.775926 70.451003 " transform="matrix(0.999663,0,0,-0.999663,0.0489238,269.817862)"/>
</g>
</g>
</svg>
