<?xml version="1.0" encoding="UTF-8"?>
<svg xmlns="http://www.w3.org/2000/svg" xmlns:xlink="http://www.w3.org/1999/xlink" width="528.165625pt" height="400.239062pt" viewBox="0 0 528.165625 400.239062" version="1.2">
<defs>
<clipPath id="clip1">
  <path d="M 0.0859375 0 L 527.25 0 L 527.25 399.480469 L 0.0859375 399.480469 Z M 0.0859375 0 "/>
</clipPath>
<clipPath id="clip2">
  <path d="M 56.289062 16.847656 L 508.800781 16.847656 L 508.800781 120.414062 L 56.289062 120.414062 Z M 56.289062 16.847656 "/>
</clipPath>
<clipPath id="clip3">
  <path d="M 56.289062 141.128906 L 508.800781 141.128906 L 508.800781 244.695312 L 56.289062 244.695312 Z M 56.289062 141.128906 "/>
</clipPath>
<clipPath id="clip4">
  <path d="M 56.289062 265.410156 L 508.800781 265.410156 L 508.800781 368.976562 L 56.289062 368.976562 Z M 56.289062 265.410156 "/>
</clipPath>
</defs>
<g id="surface1">
<g clip-path="url(#clip1)" clip-rule="nonzero">
<path style=" stroke:none;fill-rule:nonzero;fill:rgb(100%,100%,100%);fill-opacity:1;" d="M 0.0859375 399.480469 L 527.25 399.480469 L 527.25 0 L 0.0859375 0 Z M 0.0859375 399.480469 "/>
</g>
<g clip-path="url(#clip2)" clip-rule="nonzero">
<path style="fill:none;stroke-width:1;stroke-linecap:square;stroke-linejoin:round;stroke:rgb(0%,0%,100%);stroke-opacity:1;stroke-miterlimit:10;" d="M 56.311191 383.359375 L 57.21525 373.449946 L 58.123223 347.510098 L 59.031196 315.445345 L 59.935255 289.501583 L 60.843228 279.596068 L 61.751201 289.501583 L 62.655261 315.445345 L 63.563234 347.510098 L 64.471207 373.449946 L 65.375266 383.359375 L 66.283239 373.449946 L 67.191212 347.510098 L 68.095271 315.445345 L 69.003244 289.501583 L 69.911217 279.596068 L 70.81919 289.501583 L 71.723249 315.445345 L 72.631222 347.510098 L 73.539195 373.449946 L 74.443255 383.359375 L 75.351228 373.449946 L 76.259201 347.510098 L 77.16326 315.445345 L 78.071233 289.501583 L 78.979206 279.596068 L 79.883265 289.501583 L 80.791238 315.445345 L 81.699211 347.510098 L 82.60327 373.449946 L 83.511243 383.359375 L 84.419216 373.449946 L 85.327189 347.510098 L 86.231249 315.445345 L 87.139221 289.501583 L 88.047194 279.596068 L 88.951254 289.501583 L 89.859227 315.445345 L 90.7672 347.510098 L 91.671259 373.449946 L 92.579232 383.359375 L 93.487205 373.449946 L 94.391264 347.510098 L 95.299237 315.445345 L 96.20721 289.501583 L 97.111269 279.596068 L 98.019242 289.501583 L 98.927215 315.445345 L 99.835188 347.510098 L 100.739248 373.449946 L 101.647221 383.359375 L 102.555194 373.449946 L 103.459253 347.510098 L 104.367226 315.445345 L 105.275199 289.501583 L 106.179258 279.596068 L 107.087231 289.501583 L 107.995204 315.445345 L 108.899263 347.510098 L 109.807236 373.449946 L 110.715209 383.359375 L 111.619269 373.449946 L 112.527242 347.510098 L 113.435215 315.445345 L 114.343187 289.501583 L 115.247247 279.596068 L 116.15522 289.501583 L 117.063193 315.445345 L 117.967252 347.510098 L 118.875225 373.449946 L 119.783198 383.359375 L 120.687257 373.449946 L 121.59523 347.510098 L 122.503203 315.445345 L 123.407262 289.501583 L 124.315235 279.596068 L 125.223208 289.501583 L 126.127268 315.445345 L 127.035241 347.510098 L 127.943214 373.449946 L 128.851187 383.359375 L 129.755246 373.449946 L 130.663219 347.510098 L 131.571192 315.445345 L 132.475251 289.501583 L 133.383224 279.596068 L 134.291197 289.501583 L 135.195256 315.445345 L 136.103229 347.510098 L 137.011202 373.449946 L 137.915262 383.359375 L 138.823235 373.449946 L 139.731208 347.510098 L 140.635267 315.445345 L 141.54324 289.501583 L 142.451213 279.596068 L 143.359186 289.501583 L 144.263245 315.445345 L 145.171218 347.510098 L 146.079191 373.449946 L 146.98325 383.359375 L 147.891223 373.449946 L 148.799196 347.510098 L 149.703255 315.445345 L 150.611228 289.501583 L 151.519201 279.596068 L 152.423261 289.501583 L 153.331234 315.445345 L 154.239207 347.510098 L 155.143266 373.449946 L 156.051239 383.359375 L 156.959212 373.449946 L 157.867185 347.510098 L 158.771244 315.445345 L 159.679217 289.501583 L 160.58719 279.596068 L 161.491249 289.501583 L 162.399222 315.445345 L 163.307195 347.510098 L 164.211255 373.449946 L 165.119228 383.359375 L 166.027201 373.449946 L 166.93126 347.510098 L 167.839233 315.445345 L 168.747206 289.501583 L 169.651265 279.596068 L 170.559238 289.501583 L 171.467211 315.445345 L 172.375184 347.510098 L 173.279243 373.449946 L 174.187216 383.359375 L 175.095189 373.449946 L 175.999248 347.510098 L 176.907221 315.445345 L 177.815194 289.501583 L 178.719254 279.596068 L 179.627227 289.501583 L 180.5352 315.445345 L 181.439259 347.510098 L 182.347232 373.449946 L 183.255205 383.359375 L 184.159264 373.449946 L 185.067237 347.510098 L 185.97521 315.445345 L 186.883183 289.501583 L 187.787242 279.596068 L 188.695215 289.501583 L 189.603188 315.445345 L 190.507248 347.510098 L 191.415221 373.449946 L 192.323194 383.359375 L 193.227253 373.449946 L 194.135226 347.510098 L 195.043199 315.445345 L 195.947258 289.501583 L 196.855231 279.596068 L 197.763204 289.501583 L 198.667263 315.445345 L 199.575236 347.510098 L 200.483209 373.449946 L 201.391182 383.359375 L 202.295242 373.449946 L 203.203214 347.510098 L 204.111187 315.445345 L 205.015247 289.501583 L 205.92322 279.596068 L 206.831193 289.501583 L 207.735252 315.445345 L 208.643225 347.510098 L 209.551198 373.449946 L 210.455257 383.359375 L 211.36323 373.449946 L 212.271203 347.510098 L 213.175262 315.445345 L 214.083235 289.501583 L 214.991208 279.596068 L 215.899181 289.501583 L 216.803241 315.445345 L 217.711214 347.510098 L 218.619187 373.449946 L 219.523246 383.359375 L 220.431219 373.449946 L 221.339192 347.510098 L 222.243251 315.445345 L 223.151224 289.501583 L 224.059197 279.596068 L 224.963256 289.501583 L 225.871229 315.445345 L 226.779202 347.510098 L 227.683262 373.449946 L 228.591235 383.359375 L 229.499208 373.449946 L 230.40718 347.510098 L 231.31124 315.445345 L 232.219213 289.501583 L 233.127186 279.596068 L 234.031245 289.501583 L 234.939218 315.445345 L 235.847191 347.510098 L 236.75125 373.449946 L 237.659223 383.359375 L 238.567196 373.449946 L 239.471255 347.510098 L 240.379228 315.445345 L 241.287201 289.501583 L 242.191261 279.596068 L 243.099234 289.501583 L 244.007207 315.445345 L 244.91518 347.510098 L 245.819239 373.449946 L 246.727212 383.359375 L 247.635185 373.449946 L 248.539244 347.510098 L 249.447217 315.445345 L 250.35519 289.501583 L 251.259249 279.596068 L 252.167222 289.501583 L 253.075195 315.445345 L 253.979255 347.510098 L 254.887228 373.449946 L 255.795201 383.359375 L 256.69926 373.449946 L 257.607233 347.510098 L 258.515206 315.445345 L 259.423179 289.501583 L 260.327238 279.596068 L 261.235211 289.501583 L 262.143184 315.445345 L 263.047243 347.510098 L 263.955216 373.449946 L 264.863189 383.359375 L 265.767248 373.449946 L 266.675221 347.510098 L 267.583194 315.445345 L 268.487254 289.501583 L 269.395227 279.596068 L 270.3032 289.501583 L 271.207259 315.445345 L 272.115232 347.510098 L 273.023205 373.449946 L 273.931178 383.359375 L 274.835237 373.449946 L 275.74321 347.510098 L 276.651183 315.445345 L 277.555242 289.501583 L 278.463215 279.596068 L 279.371188 289.501583 L 280.275248 315.445345 L 281.183221 347.510098 L 282.091194 373.449946 L 282.995253 383.359375 L 283.903226 373.449946 L 284.811199 347.510098 L 285.715258 315.445345 L 286.623231 289.501583 L 287.531204 279.596068 L 288.439177 289.501583 L 289.343236 315.445345 L 290.251209 347.510098 L 291.159182 373.449946 L 292.063242 383.359375 L 292.971214 373.449946 L 293.879187 347.510098 L 294.783247 315.445345 L 295.69122 289.501583 L 296.599193 279.596068 L 297.503252 289.501583 L 298.411225 315.445345 L 299.319198 347.510098 L 300.223257 373.449946 L 301.13123 383.359375 L 302.039203 373.449946 L 302.947176 347.510098 L 303.851235 315.445345 L 304.759208 289.501583 L 305.667181 279.596068 L 306.571241 289.501583 L 307.479214 315.445345 L 308.387187 347.510098 L 309.291246 373.449946 L 310.199219 383.359375 L 311.107192 373.449946 L 312.011251 347.510098 L 312.919224 315.445345 L 313.827197 289.501583 L 314.731256 279.596068 L 315.639229 289.501583 L 316.547202 315.445345 L 317.455175 347.510098 L 318.359235 373.449946 L 319.267207 383.359375 L 320.17518 373.449946 L 321.07924 347.510098 L 321.987213 315.445345 L 322.895186 289.501583 L 323.799245 279.596068 L 324.707218 289.501583 L 325.615191 315.445345 L 326.51925 347.510098 L 327.427223 373.449946 L 328.335196 383.359375 L 329.239255 373.449946 L 330.147228 347.510098 L 331.055201 315.445345 L 331.963174 289.501583 L 332.867234 279.596068 L 333.775207 289.501583 L 334.68318 315.445345 L 335.587239 347.510098 L 336.495212 373.449946 L 337.403185 383.359375 L 338.307244 373.449946 L 339.215217 347.510098 L 340.12319 315.445345 L 341.027249 289.501583 L 341.935222 279.596068 L 342.843195 289.501583 L 343.747255 315.445345 L 344.655228 347.510098 L 345.563201 373.449946 L 346.471173 383.359375 L 347.375233 373.449946 L 348.283206 347.510098 L 349.191179 315.445345 L 350.095238 289.501583 L 351.003211 279.596068 L 351.911184 289.501583 L 352.815243 315.445345 L 353.723216 347.510098 L 354.631189 373.449946 L 355.535248 383.359375 L 356.443221 373.449946 L 357.351194 347.510098 L 358.255254 315.445345 L 359.163227 289.501583 L 360.0712 279.596068 L 360.979173 289.501583 L 361.883232 315.445345 L 362.791205 347.510098 L 363.699178 373.449946 L 364.603237 383.359375 L 365.51121 373.449946 L 366.419183 347.510098 L 367.323242 315.445345 L 368.231215 289.501583 L 369.139188 279.596068 L 370.043248 289.501583 L 370.951221 315.445345 L 371.859194 347.510098 L 372.763253 373.449946 L 373.671226 383.359375 L 374.579199 373.449946 L 375.487172 347.510098 L 376.391231 315.445345 L 377.299204 289.501583 L 378.207177 279.596068 L 379.111236 289.501583 L 380.019209 315.445345 L 380.927182 347.510098 L 381.831241 373.449946 L 382.739214 383.359375 L 383.647187 373.449946 L 384.551247 347.510098 L 385.45922 315.445345 L 386.367193 289.501583 L 387.271252 279.596068 L 388.179225 289.501583 L 389.087198 315.445345 L 389.995171 347.510098 L 390.89923 373.449946 L 391.807203 383.359375 L 392.715176 373.449946 L 393.619235 347.510098 L 394.527208 315.445345 L 395.435181 289.501583 L 396.339241 279.596068 L 397.247214 289.501583 L 398.155187 315.445345 L 399.059246 347.510098 L 399.967219 373.449946 L 400.875192 383.359375 L 401.779251 373.449946 L 402.687224 347.510098 L 403.595197 315.445345 L 404.50317 289.501583 L 405.407229 279.596068 L 406.315202 289.501583 L 407.223175 315.445345 L 408.127235 347.510098 L 409.035207 373.449946 L 409.94318 383.359375 L 410.84724 373.449946 L 411.755213 347.510098 L 412.663186 315.445345 L 413.567245 289.501583 L 414.475218 279.596068 L 415.383191 289.501583 L 416.28725 315.445345 L 417.195223 347.510098 L 418.103196 373.449946 L 419.011169 383.359375 L 419.915228 373.449946 L 420.823201 347.510098 L 421.731174 315.445345 L 422.635234 289.501583 L 423.543207 279.596068 L 424.45118 289.501583 L 425.355239 315.445345 L 426.263212 347.510098 L 427.171185 373.449946 L 428.075244 383.359375 L 428.983217 373.449946 L 429.89119 347.510098 L 430.795249 315.445345 L 431.703222 289.501583 L 432.611195 279.596068 L 433.519168 289.501583 L 434.423228 315.445345 L 435.3312 347.510098 L 436.239173 373.449946 L 437.143233 383.359375 L 438.051206 373.449946 L 438.959179 347.510098 L 439.863238 315.445345 L 440.771211 289.501583 L 441.679184 279.596068 L 442.583243 289.501583 L 443.491216 315.445345 L 444.399189 347.510098 L 445.303248 373.449946 L 446.211221 383.359375 L 447.119194 373.449946 L 448.027167 347.510098 L 448.931227 315.445345 L 449.8392 289.501583 L 450.747173 279.596068 L 451.651232 289.501583 L 452.559205 315.445345 L 453.467178 347.510098 L 454.371237 373.449946 L 455.27921 383.359375 L 456.187183 373.449946 L 457.091242 347.510098 L 457.999215 315.445345 L 458.907188 289.501583 L 459.811248 279.596068 L 460.719221 289.501583 L 461.627194 315.445345 L 462.535166 347.510098 L 463.439226 373.449946 L 464.347199 383.359375 L 465.255172 373.449946 L 466.159231 347.510098 L 467.067204 315.445345 L 467.975177 289.501583 L 468.879236 279.596068 L 469.787209 289.501583 L 470.695182 315.445345 L 471.599241 347.510098 L 472.507214 373.449946 L 473.415187 383.359375 L 474.319247 373.449946 L 475.22722 347.510098 L 476.135193 315.445345 L 477.043166 289.501583 L 477.947225 279.596068 L 478.855198 289.501583 L 479.763171 315.445345 L 480.66723 347.510098 L 481.575203 373.449946 L 482.483176 383.359375 L 483.387235 373.449946 L 484.295208 347.510098 L 485.203181 315.445345 L 486.107241 289.501583 L 487.015214 279.596068 L 487.923187 289.501583 L 488.827246 315.445345 L 489.735219 347.510098 L 490.643192 373.449946 L 491.551165 383.359375 L 492.455224 373.449946 L 493.363197 347.510098 L 494.27117 315.445345 L 495.175229 289.501583 L 496.083202 279.596068 L 496.991175 289.501583 L 497.895234 315.445345 L 498.803207 347.510098 L 499.71118 373.449946 L 500.61524 383.359375 L 501.523213 373.449946 L 502.431186 347.510098 L 503.335245 315.445345 L 504.243218 289.501583 L 505.151191 279.596068 L 506.059164 289.501583 L 506.963223 315.445345 L 507.871196 347.510098 L 508.779169 373.449946 " transform="matrix(0.998102,0,0,-0.998102,0.0847276,399.479569)"/>
</g>
<g clip-path="url(#clip3)" clip-rule="nonzero">
<path style="fill:none;stroke-width:1;stroke-linecap:square;stroke-linejoin:round;stroke:rgb(0%,0%,100%);stroke-opacity:1;stroke-miterlimit:10;" d="M 56.311191 258.841841 L 57.21525 258.740085 L 58.123223 258.430905 L 59.031196 257.922127 L 59.935255 257.209838 L 60.843228 256.301865 L 61.751201 255.198208 L 63.563234 252.423411 L 65.375266 248.932412 L 67.191212 244.780001 L 69.003244 240.028798 L 70.81919 234.760989 L 73.539195 226.056972 L 77.16326 213.462761 L 84.419216 187.859489 L 87.139221 179.159386 L 88.951254 173.887663 L 90.7672 169.140373 L 92.579232 164.984049 L 94.391264 161.493049 L 96.20721 158.722166 L 97.111269 157.614596 L 98.019242 156.706623 L 98.927215 155.994334 L 99.835188 155.485556 L 100.739248 155.180289 L 101.647221 155.078533 L 102.555194 155.180289 L 103.459253 155.485556 L 104.367226 155.994334 L 105.275199 156.706623 L 106.179258 157.614596 L 107.087231 158.722166 L 108.899263 161.493049 L 110.715209 164.984049 L 112.527242 169.140373 L 114.343187 173.887663 L 116.15522 179.159386 L 118.875225 187.859489 L 122.503203 200.457614 L 129.755246 226.056972 L 132.475251 234.760989 L 134.291197 240.028798 L 136.103229 244.780001 L 137.915262 248.932412 L 139.731208 252.423411 L 141.54324 255.198208 L 142.451213 256.301865 L 143.359186 257.209838 L 144.263245 257.922127 L 145.171218 258.430905 L 146.079191 258.740085 L 146.98325 258.841841 L 147.891223 258.740085 L 148.799196 258.430905 L 149.703255 257.922127 L 150.611228 257.209838 L 151.519201 256.301865 L 152.423261 255.198208 L 154.239207 252.423411 L 156.051239 248.932412 L 157.867185 244.780001 L 159.679217 240.028798 L 161.491249 234.760989 L 164.211255 226.056972 L 167.839233 213.462761 L 175.095189 187.859489 L 177.815194 179.159386 L 179.627227 173.887663 L 181.439259 169.140373 L 183.255205 164.984049 L 185.067237 161.493049 L 186.883183 158.722166 L 187.787242 157.614596 L 188.695215 156.706623 L 189.603188 155.994334 L 190.507248 155.485556 L 191.415221 155.180289 L 192.323194 155.078533 L 193.227253 155.180289 L 194.135226 155.485556 L 195.043199 155.994334 L 195.947258 156.706623 L 196.855231 157.614596 L 197.763204 158.722166 L 199.575236 161.493049 L 201.391182 164.984049 L 203.203214 169.140373 L 205.015247 173.887663 L 206.831193 179.159386 L 209.551198 187.859489 L 213.175262 200.457614 L 220.431219 226.056972 L 223.151224 234.760989 L 224.963256 240.028798 L 226.779202 244.780001 L 228.591235 248.932412 L 230.40718 252.423411 L 232.219213 255.198208 L 233.127186 256.301865 L 234.031245 257.209838 L 234.939218 257.922127 L 235.847191 258.430905 L 236.75125 258.740085 L 237.659223 258.841841 L 238.567196 258.740085 L 239.471255 258.430905 L 240.379228 257.922127 L 241.287201 257.209838 L 242.191261 256.301865 L 243.099234 255.198208 L 244.91518 252.423411 L 246.727212 248.932412 L 248.539244 244.780001 L 250.35519 240.028798 L 252.167222 234.760989 L 254.887228 226.056972 L 258.515206 213.462761 L 265.767248 187.859489 L 268.487254 179.159386 L 270.3032 173.887663 L 272.115232 169.140373 L 273.931178 164.984049 L 275.74321 161.493049 L 277.555242 158.722166 L 278.463215 157.614596 L 279.371188 156.706623 L 280.275248 155.994334 L 281.183221 155.485556 L 282.091194 155.180289 L 282.995253 155.078533 L 283.903226 155.180289 L 284.811199 155.485556 L 285.715258 155.994334 L 286.623231 156.706623 L 287.531204 157.614596 L 288.439177 158.722166 L 290.251209 161.493049 L 292.063242 164.984049 L 293.879187 169.140373 L 295.69122 173.887663 L 297.503252 179.159386 L 300.223257 187.859489 L 303.851235 200.457614 L 311.107192 226.056972 L 313.827197 234.760989 L 315.639229 240.028798 L 317.455175 244.780001 L 319.267207 248.932412 L 321.07924 252.423411 L 322.895186 255.198208 L 323.799245 256.301865 L 324.707218 257.209838 L 325.615191 257.922127 L 326.51925 258.430905 L 327.427223 258.740085 L 328.335196 258.841841 L 329.239255 258.740085 L 330.147228 258.430905 L 331.055201 257.922127 L 331.963174 257.209838 L 332.867234 256.301865 L 333.775207 255.198208 L 335.587239 252.423411 L 337.403185 248.932412 L 339.215217 244.780001 L 341.027249 240.028798 L 342.843195 234.760989 L 345.563201 226.056972 L 349.191179 213.462761 L 356.443221 187.859489 L 359.163227 179.159386 L 360.979173 173.887663 L 362.791205 169.140373 L 364.603237 164.984049 L 366.419183 161.493049 L 368.231215 158.722166 L 369.139188 157.614596 L 370.043248 156.706623 L 370.951221 155.994334 L 371.859194 155.485556 L 372.763253 155.180289 L 373.671226 155.078533 L 374.579199 155.180289 L 375.487172 155.485556 L 376.391231 155.994334 L 377.299204 156.706623 L 378.207177 157.614596 L 379.111236 158.722166 L 380.927182 161.493049 L 382.739214 164.984049 L 384.551247 169.140373 L 386.367193 173.887663 L 388.179225 179.159386 L 390.89923 187.859489 L 394.527208 200.457614 L 401.779251 226.056972 L 404.50317 234.760989 L 406.315202 240.028798 L 408.127235 244.780001 L 409.94318 248.932412 L 411.755213 252.423411 L 413.567245 255.198208 L 414.475218 256.301865 L 415.383191 257.209838 L 416.28725 257.922127 L 417.195223 258.430905 L 418.103196 258.740085 L 419.011169 258.841841 L 419.915228 258.740085 L 420.823201 258.430905 L 421.731174 257.922127 L 422.635234 257.209838 L 423.543207 256.301865 L 424.45118 255.198208 L 426.263212 252.423411 L 428.075244 248.932412 L 429.89119 244.780001 L 431.703222 240.028798 L 433.519168 234.760989 L 436.239173 226.056972 L 439.863238 213.462761 L 447.119194 187.859489 L 449.8392 179.159386 L 451.651232 173.887663 L 453.467178 169.140373 L 455.27921 164.984049 L 457.091242 161.493049 L 458.907188 158.722166 L 459.811248 157.614596 L 460.719221 156.706623 L 461.627194 155.994334 L 462.535166 155.485556 L 463.439226 155.180289 L 464.347199 155.078533 L 465.255172 155.180289 L 466.159231 155.485556 L 467.067204 155.994334 L 467.975177 156.706623 L 468.879236 157.614596 L 469.787209 158.722166 L 471.599241 161.493049 L 473.415187 164.984049 L 475.22722 169.140373 L 477.043166 173.887663 L 478.855198 179.159386 L 481.575203 187.859489 L 485.203181 200.457614 L 492.455224 226.056972 L 495.175229 234.760989 L 496.991175 240.028798 L 498.803207 244.780001 L 500.61524 248.932412 L 502.431186 252.423411 L 504.243218 255.198208 L 505.151191 256.301865 L 506.059164 257.209838 L 506.963223 257.922127 L 507.871196 258.430905 L 508.779169 258.740085 " transform="matrix(0.998102,0,0,-0.998102,0.0847276,399.479569)"/>
</g>
<g clip-path="url(#clip4)" clip-rule="nonzero">
<path style="fill:none;stroke-width:1;stroke-linecap:square;stroke-linejoin:round;stroke:rgb(0%,0%,100%);stroke-opacity:1;stroke-miterlimit:10;" d="M 56.311191 134.324306 L 57.21525 124.387482 L 58.123223 98.431978 L 59.031196 66.504205 L 59.935255 40.90876 L 60.843228 31.406353 L 61.751201 41.448847 L 62.655261 66.919055 L 63.563234 97.813618 L 64.471207 122.238873 L 65.375266 131.021163 L 66.283239 121.205663 L 67.191212 97.026969 L 68.095271 68.093158 L 69.003244 45.542553 L 69.911217 37.687804 L 70.81919 46.963218 L 71.723249 69.177246 L 72.631222 95.406706 L 73.539195 115.573882 L 74.443255 122.375852 L 75.351228 113.902742 L 76.259201 94.130848 L 77.16326 71.083206 L 78.071233 53.581245 L 78.979206 47.851622 L 79.883265 55.338486 L 80.791238 72.421684 L 81.699211 92.127045 L 82.60327 106.944225 L 83.511243 111.687601 L 84.419216 105.273085 L 85.327189 90.855101 L 86.231249 74.327644 L 87.139221 61.956513 L 88.047194 58.019354 L 88.951254 63.377177 L 89.859227 75.411733 L 90.7672 89.234838 L 91.671259 99.645218 L 92.579232 103.038376 L 93.487205 98.612008 L 94.391264 88.448189 L 95.299237 76.589749 L 96.20721 67.466969 L 97.111269 64.300805 L 98.019242 68.01097 L 98.927215 77.004599 L 99.835188 87.829829 L 100.739248 96.459485 L 101.647221 99.735233 L 102.555194 96.459485 L 103.459253 87.829829 L 104.367226 77.004599 L 105.275199 68.01097 L 106.179258 64.300805 L 107.087231 67.466969 L 107.995204 76.589749 L 108.899263 88.448189 L 109.807236 98.612008 L 110.715209 103.038376 L 111.619269 99.645218 L 112.527242 89.234838 L 113.435215 75.411733 L 114.343187 63.377177 L 115.247247 58.019354 L 116.15522 61.956513 L 117.063193 74.327644 L 117.967252 90.855101 L 118.875225 105.273085 L 119.783198 111.687601 L 120.687257 106.944225 L 121.59523 92.127045 L 122.503203 72.421684 L 123.407262 55.338486 L 124.315235 47.851622 L 125.223208 53.581245 L 126.127268 71.083206 L 127.035241 94.130848 L 127.943214 113.902742 L 128.851187 122.375852 L 129.755246 115.573882 L 130.663219 95.406706 L 131.571192 69.177246 L 132.475251 46.963218 L 133.383224 37.687804 L 134.291197 45.542553 L 135.195256 68.093158 L 136.103229 97.026969 L 137.011202 121.205663 L 137.915262 131.021163 L 138.823235 122.238873 L 139.731208 97.813618 L 140.635267 66.919055 L 141.54324 41.448847 L 142.451213 31.406353 L 143.359186 40.90876 L 144.263245 66.504205 L 145.171218 98.431978 L 146.079191 124.387482 L 146.98325 134.324306 L 147.891223 124.387482 L 148.799196 98.431978 L 149.703255 66.504205 L 150.611228 40.90876 L 151.519201 31.406353 L 152.423261 41.448847 L 153.331234 66.919055 L 154.239207 97.813618 L 155.143266 122.238873 L 156.051239 131.021163 L 156.959212 121.205663 L 157.867185 97.026969 L 158.771244 68.093158 L 159.679217 45.542553 L 160.58719 37.687804 L 161.491249 46.963218 L 162.399222 69.177246 L 163.307195 95.406706 L 164.211255 115.573882 L 165.119228 122.375852 L 166.027201 113.902742 L 166.93126 94.130848 L 167.839233 71.083206 L 168.747206 53.581245 L 169.651265 47.851622 L 170.559238 55.338486 L 171.467211 72.421684 L 172.375184 92.127045 L 173.279243 106.944225 L 174.187216 111.687601 L 175.095189 105.273085 L 175.999248 90.855101 L 176.907221 74.327644 L 177.815194 61.956513 L 178.719254 58.019354 L 179.627227 63.377177 L 180.5352 75.411733 L 181.439259 89.234838 L 182.347232 99.645218 L 183.255205 103.038376 L 184.159264 98.612008 L 185.067237 88.448189 L 185.97521 76.589749 L 186.883183 67.466969 L 187.787242 64.300805 L 188.695215 68.01097 L 189.603188 77.004599 L 190.507248 87.829829 L 191.415221 96.459485 L 192.323194 99.735233 L 193.227253 96.459485 L 194.135226 87.829829 L 195.043199 77.004599 L 195.947258 68.01097 L 196.855231 64.300805 L 197.763204 67.466969 L 198.667263 76.589749 L 199.575236 88.448189 L 200.483209 98.612008 L 201.391182 103.038376 L 202.295242 99.645218 L 203.203214 89.234838 L 204.111187 75.411733 L 205.015247 63.377177 L 205.92322 58.019354 L 206.831193 61.956513 L 207.735252 74.327644 L 208.643225 90.855101 L 209.551198 105.273085 L 210.455257 111.687601 L 211.36323 106.944225 L 212.271203 92.127045 L 213.175262 72.421684 L 214.083235 55.338486 L 214.991208 47.851622 L 215.899181 53.581245 L 216.803241 71.083206 L 217.711214 94.130848 L 218.619187 113.902742 L 219.523246 122.375852 L 220.431219 115.573882 L 221.339192 95.406706 L 222.243251 69.177246 L 223.151224 46.963218 L 224.059197 37.687804 L 224.963256 45.542553 L 225.871229 68.093158 L 226.779202 97.026969 L 227.683262 121.205663 L 228.591235 131.021163 L 229.499208 122.238873 L 230.40718 97.813618 L 231.31124 66.919055 L 232.219213 41.448847 L 233.127186 31.406353 L 234.031245 40.90876 L 234.939218 66.504205 L 235.847191 98.431978 L 236.75125 124.387482 L 237.659223 134.324306 L 238.567196 124.387482 L 239.471255 98.431978 L 240.379228 66.504205 L 241.287201 40.90876 L 242.191261 31.406353 L 243.099234 41.448847 L 244.007207 66.919055 L 244.91518 97.813618 L 245.819239 122.238873 L 246.727212 131.021163 L 247.635185 121.205663 L 248.539244 97.026969 L 249.447217 68.093158 L 250.35519 45.542553 L 251.259249 37.687804 L 252.167222 46.963218 L 253.075195 69.177246 L 253.979255 95.406706 L 254.887228 115.573882 L 255.795201 122.375852 L 256.69926 113.902742 L 257.607233 94.130848 L 258.515206 71.083206 L 259.423179 53.581245 L 260.327238 47.851622 L 261.235211 55.338486 L 262.143184 72.421684 L 263.047243 92.127045 L 263.955216 106.944225 L 264.863189 111.687601 L 265.767248 105.273085 L 266.675221 90.855101 L 267.583194 74.327644 L 268.487254 61.956513 L 269.395227 58.019354 L 270.3032 63.377177 L 271.207259 75.411733 L 272.115232 89.234838 L 273.023205 99.645218 L 273.931178 103.038376 L 274.835237 98.612008 L 275.74321 88.448189 L 276.651183 76.589749 L 277.555242 67.466969 L 278.463215 64.300805 L 279.371188 68.01097 L 280.275248 77.004599 L 281.183221 87.829829 L 282.091194 96.459485 L 282.995253 99.735233 L 283.903226 96.459485 L 284.811199 87.829829 L 285.715258 77.004599 L 286.623231 68.01097 L 287.531204 64.300805 L 288.439177 67.466969 L 289.343236 76.589749 L 290.251209 88.448189 L 291.159182 98.612008 L 292.063242 103.038376 L 292.971214 99.645218 L 293.879187 89.234838 L 294.783247 75.411733 L 295.69122 63.377177 L 296.599193 58.019354 L 297.503252 61.956513 L 298.411225 74.327644 L 299.319198 90.855101 L 300.223257 105.273085 L 301.13123 111.687601 L 302.039203 106.944225 L 302.947176 92.127045 L 303.851235 72.421684 L 304.759208 55.338486 L 305.667181 47.851622 L 306.571241 53.581245 L 307.479214 71.083206 L 308.387187 94.130848 L 309.291246 113.902742 L 310.199219 122.375852 L 311.107192 115.573882 L 312.011251 95.406706 L 312.919224 69.177246 L 313.827197 46.963218 L 314.731256 37.687804 L 315.639229 45.542553 L 316.547202 68.093158 L 317.455175 97.026969 L 318.359235 121.205663 L 319.267207 131.021163 L 320.17518 122.238873 L 321.07924 97.813618 L 321.987213 66.919055 L 322.895186 41.448847 L 323.799245 31.406353 L 324.707218 40.90876 L 325.615191 66.504205 L 326.51925 98.431978 L 327.427223 124.387482 L 328.335196 134.324306 L 329.239255 124.387482 L 330.147228 98.431978 L 331.055201 66.504205 L 331.963174 40.90876 L 332.867234 31.406353 L 333.775207 41.448847 L 334.68318 66.919055 L 335.587239 97.813618 L 336.495212 122.238873 L 337.403185 131.021163 L 338.307244 121.205663 L 339.215217 97.026969 L 340.12319 68.093158 L 341.027249 45.542553 L 341.935222 37.687804 L 342.843195 46.963218 L 343.747255 69.177246 L 344.655228 95.406706 L 345.563201 115.573882 L 346.471173 122.375852 L 347.375233 113.902742 L 348.283206 94.130848 L 349.191179 71.083206 L 350.095238 53.581245 L 351.003211 47.851622 L 351.911184 55.338486 L 352.815243 72.421684 L 353.723216 92.127045 L 354.631189 106.944225 L 355.535248 111.687601 L 356.443221 105.273085 L 357.351194 90.855101 L 358.255254 74.327644 L 359.163227 61.956513 L 360.0712 58.019354 L 360.979173 63.377177 L 361.883232 75.411733 L 362.791205 89.234838 L 363.699178 99.645218 L 364.603237 103.038376 L 365.51121 98.612008 L 366.419183 88.448189 L 367.323242 76.589749 L 368.231215 67.466969 L 369.139188 64.300805 L 370.043248 68.01097 L 370.951221 77.004599 L 371.859194 87.829829 L 372.763253 96.459485 L 373.671226 99.735233 L 374.579199 96.459485 L 375.487172 87.829829 L 376.391231 77.004599 L 377.299204 68.01097 L 378.207177 64.300805 L 379.111236 67.466969 L 380.019209 76.589749 L 380.927182 88.448189 L 381.831241 98.612008 L 382.739214 103.038376 L 383.647187 99.645218 L 384.551247 89.234838 L 385.45922 75.411733 L 386.367193 63.377177 L 387.271252 58.019354 L 388.179225 61.956513 L 389.087198 74.327644 L 389.995171 90.855101 L 390.89923 105.273085 L 391.807203 111.687601 L 392.715176 106.944225 L 393.619235 92.127045 L 394.527208 72.421684 L 395.435181 55.338486 L 396.339241 47.851622 L 397.247214 53.581245 L 398.155187 71.083206 L 399.059246 94.130848 L 399.967219 113.902742 L 400.875192 122.375852 L 401.779251 115.573882 L 402.687224 95.406706 L 403.595197 69.177246 L 404.50317 46.963218 L 405.407229 37.687804 L 406.315202 45.542553 L 407.223175 68.093158 L 408.127235 97.026969 L 409.035207 121.205663 L 409.94318 131.021163 L 410.84724 122.238873 L 411.755213 97.813618 L 412.663186 66.919055 L 413.567245 41.448847 L 414.475218 31.406353 L 415.383191 40.90876 L 416.28725 66.504205 L 417.195223 98.431978 L 418.103196 124.387482 L 419.011169 134.324306 L 419.915228 124.387482 L 420.823201 98.431978 L 421.731174 66.504205 L 422.635234 40.90876 L 423.543207 31.406353 L 424.45118 41.448847 L 425.355239 66.919055 L 426.263212 97.813618 L 427.171185 122.238873 L 428.075244 131.021163 L 428.983217 121.205663 L 429.89119 97.026969 L 430.795249 68.093158 L 431.703222 45.542553 L 432.611195 37.687804 L 433.519168 46.963218 L 434.423228 69.177246 L 435.3312 95.406706 L 436.239173 115.573882 L 437.143233 122.375852 L 438.051206 113.902742 L 438.959179 94.130848 L 439.863238 71.083206 L 440.771211 53.581245 L 441.679184 47.851622 L 442.583243 55.338486 L 443.491216 72.421684 L 444.399189 92.127045 L 445.303248 106.944225 L 446.211221 111.687601 L 447.119194 105.273085 L 448.027167 90.855101 L 448.931227 74.327644 L 449.8392 61.956513 L 450.747173 58.019354 L 451.651232 63.377177 L 452.559205 75.411733 L 453.467178 89.234838 L 454.371237 99.645218 L 455.27921 103.038376 L 456.187183 98.612008 L 457.091242 88.448189 L 457.999215 76.589749 L 458.907188 67.466969 L 459.811248 64.300805 L 460.719221 68.01097 L 461.627194 77.004599 L 462.535166 87.829829 L 463.439226 96.459485 L 464.347199 99.735233 L 465.255172 96.459485 L 466.159231 87.829829 L 467.067204 77.004599 L 467.975177 68.01097 L 468.879236 64.300805 L 469.787209 67.466969 L 470.695182 76.589749 L 471.599241 88.448189 L 472.507214 98.612008 L 473.415187 103.038376 L 474.319247 99.645218 L 475.22722 89.234838 L 476.135193 75.411733 L 477.043166 63.377177 L 477.947225 58.019354 L 478.855198 61.956513 L 479.763171 74.327644 L 480.66723 90.855101 L 481.575203 105.273085 L 482.483176 111.687601 L 483.387235 106.944225 L 484.295208 92.127045 L 485.203181 72.421684 L 486.107241 55.338486 L 487.015214 47.851622 L 487.923187 53.581245 L 488.827246 71.083206 L 489.735219 94.130848 L 490.643192 113.902742 L 491.551165 122.375852 L 492.455224 115.573882 L 493.363197 95.406706 L 494.27117 69.177246 L 495.175229 46.963218 L 496.083202 37.687804 L 496.991175 45.542553 L 497.895234 68.093158 L 498.803207 97.026969 L 499.71118 121.205663 L 500.61524 131.021163 L 501.523213 122.238873 L 502.431186 97.813618 L 503.335245 66.919055 L 504.243218 41.448847 L 505.151191 31.406353 L 506.059164 40.90876 L 506.963223 66.504205 L 507.871196 98.431978 L 508.779169 124.387482 " transform="matrix(0.998102,0,0,-0.998102,0.0847276,399.479569)"/>
</g>
</g>
</svg>
