<?xml version="1.0" encoding="UTF-8"?>
<svg xmlns="http://www.w3.org/2000/svg" xmlns:xlink="http://www.w3.org/1999/xlink" width="251pt" height="163pt" viewBox="0 0 251 163" version="1.2">
<g id="surface1">
<path style=" stroke:none;fill-rule:nonzero;fill:rgb(100%,100%,100%);fill-opacity:1;" d="M 0 0 L 251.25 0 L 251.25 162.5 L 0 162.5 Z M 0 0 "/>
<path style=" stroke:none;fill-rule:nonzero;fill:rgb(0%,0%,0%);fill-opacity:1;" d="M 153.238281 5.988281 L 154.703125 5.988281 L 154.703125 14.875 L 153.238281 14.875 Z M 153.238281 2.53125 L 154.703125 2.53125 L 154.703125 4.386719 L 153.238281 4.386719 Z M 153.238281 2.53125 "/>
<path style=" stroke:none;fill-rule:nonzero;fill:rgb(0%,0%,0%);fill-opacity:1;" d="M 161.195312 2.550781 C 160.492188 3.761719 159.964844 4.964844 159.613281 6.164062 C 159.273438 7.347656 159.105469 8.554688 159.105469 9.777344 C 159.105469 11 159.273438 12.210938 159.613281 13.410156 C 159.964844 14.609375 160.492188 15.8125 161.195312 17.023438 L 159.925781 17.023438 C 159.128906 15.773438 158.539062 14.550781 158.148438 13.351562 C 157.757812 12.152344 157.5625 10.960938 157.5625 9.777344 C 157.5625 8.59375 157.757812 7.40625 158.148438 6.222656 C 158.539062 5.023438 159.128906 3.800781 159.925781 2.550781 Z M 161.195312 2.550781 "/>
<path style=" stroke:none;fill-rule:nonzero;fill:rgb(0%,0%,0%);fill-opacity:1;" d="M 165.375 3.46875 L 165.375 5.988281 L 168.382812 5.988281 L 168.382812 7.121094 L 165.375 7.121094 L 165.375 11.945312 C 165.375 12.675781 165.472656 13.144531 165.667969 13.351562 C 165.875 13.546875 166.285156 13.644531 166.898438 13.644531 L 168.382812 13.644531 L 168.382812 14.875 L 166.898438 14.875 C 165.765625 14.875 164.984375 14.667969 164.554688 14.25 C 164.125 13.820312 163.910156 13.050781 163.910156 11.945312 L 163.910156 7.121094 L 162.835938 7.121094 L 162.835938 5.988281 L 163.910156 5.988281 L 163.910156 3.46875 Z M 165.375 3.46875 "/>
<path style=" stroke:none;fill-rule:nonzero;fill:rgb(0%,0%,0%);fill-opacity:1;" d="M 169.988281 2.550781 L 171.257812 2.550781 C 172.050781 3.800781 172.644531 5.023438 173.035156 6.222656 C 173.425781 7.40625 173.621094 8.59375 173.621094 9.777344 C 173.621094 10.960938 173.425781 12.152344 173.035156 13.351562 C 172.644531 14.550781 172.050781 15.773438 171.257812 17.023438 L 169.988281 17.023438 C 170.691406 15.8125 171.210938 14.609375 171.550781 13.410156 C 171.902344 12.210938 172.078125 11 172.078125 9.777344 C 172.078125 8.554688 171.902344 7.347656 171.550781 6.164062 C 171.210938 4.964844 170.691406 3.761719 169.988281 2.550781 Z M 169.988281 2.550781 "/>
<path style="fill:none;stroke-width:2.5;stroke-linecap:butt;stroke-linejoin:miter;stroke:rgb(0%,0%,0%);stroke-opacity:1;stroke-miterlimit:10;" d="M 176.714844 112.375 L 176.714844 137.375 "/>
<path style="fill:none;stroke-width:2.5;stroke-linecap:butt;stroke-linejoin:miter;stroke:rgb(0%,0%,0%);stroke-opacity:1;stroke-miterlimit:10;" d="M 151.714844 137.375 L 201.714844 137.375 "/>
<path style="fill:none;stroke-width:2.5;stroke-linecap:butt;stroke-linejoin:miter;stroke:rgb(0%,0%,0%);stroke-opacity:1;stroke-miterlimit:10;" d="M 160.09375 149.875 L 193.339844 149.875 "/>
<path style="fill:none;stroke-width:2.5;stroke-linecap:butt;stroke-linejoin:miter;stroke:rgb(0%,0%,0%);stroke-opacity:1;stroke-miterlimit:10;" d="M 168.464844 162.375 L 184.964844 162.375 "/>
<path style="fill:none;stroke-width:2.5;stroke-linecap:butt;stroke-linejoin:miter;stroke:rgb(0%,0%,0%);stroke-opacity:1;stroke-miterlimit:10;" d="M 209.214844 101.125 L 208.0625 34.214844 "/>
<path style="fill:none;stroke-width:2.5;stroke-linecap:butt;stroke-linejoin:miter;stroke:rgb(0%,0%,0%);stroke-opacity:1;stroke-miterlimit:10;" d="M 214.476562 43.808594 L 208.011719 31.421875 L 201.980469 44.023438 "/>
<path style=" stroke:none;fill-rule:nonzero;fill:rgb(0%,0%,0%);fill-opacity:1;" d="M 229.449219 64.445312 C 229.027344 65.507812 228.628906 66.203125 228.238281 66.515625 C 227.847656 66.835938 227.324219 67.003906 226.675781 67.003906 L 225.503906 67.003906 L 225.503906 65.792969 L 226.363281 65.792969 C 226.761719 65.792969 227.074219 65.695312 227.300781 65.5 C 227.519531 65.304688 227.757812 64.855469 228.023438 64.152344 L 228.296875 63.488281 L 224.703125 54.738281 L 226.246094 54.738281 L 229.019531 61.691406 L 231.792969 54.738281 L 233.355469 54.738281 Z M 229.449219 64.445312 "/>
<path style=" stroke:none;fill-rule:nonzero;fill:rgb(0%,0%,0%);fill-opacity:1;" d="M 238.726562 51.300781 C 238.023438 52.511719 237.496094 53.714844 237.144531 54.914062 C 236.800781 56.097656 236.636719 57.304688 236.636719 58.527344 C 236.636719 59.75 236.800781 60.960938 237.144531 62.160156 C 237.496094 63.359375 238.023438 64.5625 238.726562 65.773438 L 237.457031 65.773438 C 236.660156 64.523438 236.070312 63.300781 235.679688 62.101562 C 235.289062 60.902344 235.09375 59.710938 235.09375 58.527344 C 235.09375 57.34375 235.289062 56.15625 235.679688 54.972656 C 236.070312 53.773438 236.660156 52.550781 237.457031 51.300781 Z M 238.726562 51.300781 "/>
<path style=" stroke:none;fill-rule:nonzero;fill:rgb(0%,0%,0%);fill-opacity:1;" d="M 242.90625 52.21875 L 242.90625 54.738281 L 245.914062 54.738281 L 245.914062 55.871094 L 242.90625 55.871094 L 242.90625 60.695312 C 242.90625 61.425781 243.003906 61.894531 243.199219 62.101562 C 243.402344 62.296875 243.8125 62.394531 244.429688 62.394531 L 245.914062 62.394531 L 245.914062 63.625 L 244.429688 63.625 C 243.296875 63.625 242.515625 63.417969 242.085938 63 C 241.65625 62.570312 241.441406 61.800781 241.441406 60.695312 L 241.441406 55.871094 L 240.367188 55.871094 L 240.367188 54.738281 L 241.441406 54.738281 L 241.441406 52.21875 Z M 242.90625 52.21875 "/>
<path style=" stroke:none;fill-rule:nonzero;fill:rgb(0%,0%,0%);fill-opacity:1;" d="M 247.519531 51.300781 L 248.789062 51.300781 C 249.578125 52.550781 250.175781 53.773438 250.566406 54.972656 C 250.957031 56.15625 251.152344 57.34375 251.152344 58.527344 C 251.152344 59.710938 250.957031 60.902344 250.566406 62.101562 C 250.175781 63.300781 249.578125 64.523438 248.789062 65.773438 L 247.519531 65.773438 C 248.222656 64.5625 248.742188 63.359375 249.082031 62.160156 C 249.433594 60.960938 249.609375 59.75 249.609375 58.527344 C 249.609375 57.304688 249.433594 56.097656 249.082031 54.914062 C 248.742188 53.714844 248.222656 52.511719 247.519531 51.300781 Z M 247.519531 51.300781 "/>
<path style="fill:none;stroke-width:2.5;stroke-linecap:butt;stroke-linejoin:miter;stroke:rgb(0%,0%,0%);stroke-opacity:1;stroke-miterlimit:10;" d="M 44.46875 112.375 L 44.46875 137.375 "/>
<path style="fill:none;stroke-width:2.5;stroke-linecap:butt;stroke-linejoin:miter;stroke:rgb(0%,0%,0%);stroke-opacity:1;stroke-miterlimit:10;" d="M 19.46875 137.375 L 69.46875 137.375 "/>
<path style="fill:none;stroke-width:2.5;stroke-linecap:butt;stroke-linejoin:miter;stroke:rgb(0%,0%,0%);stroke-opacity:1;stroke-miterlimit:10;" d="M 27.839844 149.875 L 61.089844 149.875 "/>
<path style="fill:none;stroke-width:2.5;stroke-linecap:butt;stroke-linejoin:miter;stroke:rgb(0%,0%,0%);stroke-opacity:1;stroke-miterlimit:10;" d="M 36.214844 162.375 L 52.714844 162.375 "/>
<path style="fill:none;stroke-width:2.5;stroke-linecap:butt;stroke-linejoin:miter;stroke:rgb(0%,0%,0%);stroke-opacity:1;stroke-miterlimit:10;" d="M 43.75 102.671875 L 42.597656 35.757812 "/>
<path style="fill:none;stroke-width:2.5;stroke-linecap:butt;stroke-linejoin:miter;stroke:rgb(0%,0%,0%);stroke-opacity:1;stroke-miterlimit:10;" d="M 49.011719 45.355469 L 42.546875 32.964844 L 36.511719 45.570312 "/>
<path style=" stroke:none;fill-rule:nonzero;fill:rgb(0%,0%,0%);fill-opacity:1;" d="M 8.925781 67.535156 L 5.703125 71.851562 L 9.082031 76.421875 L 7.363281 76.421875 L 4.785156 72.925781 L 2.1875 76.421875 L 0.46875 76.421875 L 3.925781 71.773438 L 0.761719 67.535156 L 2.480469 67.535156 L 4.84375 70.699219 L 7.1875 67.535156 Z M 8.925781 67.535156 "/>
<path style=" stroke:none;fill-rule:nonzero;fill:rgb(0%,0%,0%);fill-opacity:1;" d="M 14.511719 64.097656 C 13.808594 65.308594 13.28125 66.515625 12.929688 67.710938 C 12.589844 68.898438 12.421875 70.101562 12.421875 71.324219 C 12.421875 72.550781 12.589844 73.761719 12.929688 74.957031 C 13.28125 76.15625 13.808594 77.359375 14.511719 78.570312 L 13.242188 78.570312 C 12.445312 77.320312 11.855469 76.097656 11.464844 74.898438 C 11.074219 73.703125 10.878906 72.511719 10.878906 71.324219 C 10.878906 70.140625 11.074219 68.957031 11.464844 67.769531 C 11.855469 66.574219 12.445312 65.347656 13.242188 64.097656 Z M 14.511719 64.097656 "/>
<path style=" stroke:none;fill-rule:nonzero;fill:rgb(0%,0%,0%);fill-opacity:1;" d="M 18.691406 65.015625 L 18.691406 67.535156 L 21.699219 67.535156 L 21.699219 68.667969 L 18.691406 68.667969 L 18.691406 73.492188 C 18.691406 74.222656 18.789062 74.691406 18.984375 74.898438 C 19.191406 75.09375 19.597656 75.191406 20.214844 75.191406 L 21.699219 75.191406 L 21.699219 76.421875 L 20.214844 76.421875 C 19.082031 76.421875 18.300781 76.214844 17.871094 75.796875 C 17.441406 75.367188 17.226562 74.601562 17.226562 73.492188 L 17.226562 68.667969 L 16.152344 68.667969 L 16.152344 67.535156 L 17.226562 67.535156 L 17.226562 65.015625 Z M 18.691406 65.015625 "/>
<path style=" stroke:none;fill-rule:nonzero;fill:rgb(0%,0%,0%);fill-opacity:1;" d="M 23.304688 64.097656 L 24.574219 64.097656 C 25.367188 65.347656 25.960938 66.574219 26.351562 67.769531 C 26.742188 68.957031 26.9375 70.140625 26.9375 71.324219 C 26.9375 72.511719 26.742188 73.703125 26.351562 74.898438 C 25.960938 76.097656 25.367188 77.320312 24.574219 78.570312 L 23.304688 78.570312 C 24.007812 77.359375 24.527344 76.15625 24.867188 74.957031 C 25.21875 73.761719 25.394531 72.550781 25.394531 71.324219 C 25.394531 70.101562 25.21875 68.898438 24.867188 67.710938 C 24.527344 66.515625 24.007812 65.308594 23.304688 64.097656 Z M 23.304688 64.097656 "/>
<path style=" stroke:none;fill-rule:nonzero;fill:rgb(0%,0%,0%);fill-opacity:1;" d="M 199.683594 85.1875 L 199.683594 86.886719 C 199.136719 86.378906 198.554688 86 197.945312 85.753906 C 197.34375 85.507812 196.699219 85.382812 196.011719 85.382812 C 194.652344 85.382812 193.613281 85.800781 192.886719 86.632812 C 192.167969 87.453125 191.8125 88.644531 191.8125 90.207031 C 191.8125 91.769531 192.167969 92.96875 192.886719 93.800781 C 193.613281 94.621094 194.652344 95.03125 196.011719 95.03125 C 196.699219 95.03125 197.34375 94.90625 197.945312 94.660156 C 198.554688 94.414062 199.136719 94.042969 199.683594 93.546875 L 199.683594 95.207031 C 199.121094 95.597656 198.53125 95.890625 197.90625 96.085938 C 197.28125 96.265625 196.617188 96.359375 195.914062 96.359375 C 194.117188 96.359375 192.699219 95.8125 191.675781 94.71875 C 190.644531 93.613281 190.132812 92.109375 190.132812 90.207031 C 190.132812 88.304688 190.644531 86.808594 191.675781 85.714844 C 192.699219 84.609375 194.117188 84.054688 195.914062 84.054688 C 196.617188 84.054688 197.28125 84.152344 197.90625 84.347656 C 198.539062 84.53125 199.136719 84.808594 199.683594 85.1875 Z M 199.683594 85.1875 "/>
<path style="fill:none;stroke-width:2.5;stroke-linecap:butt;stroke-linejoin:miter;stroke:rgb(0%,0%,0%);stroke-opacity:1;stroke-miterlimit:10;" d="M 176.714844 31.125 L 176.714844 61.125 "/>
<path style="fill:none;stroke-width:2.5;stroke-linecap:butt;stroke-linejoin:miter;stroke:rgb(0%,0%,0%);stroke-opacity:1;stroke-miterlimit:10;" d="M 164.214844 61.125 L 189.214844 61.125 "/>
<path style="fill:none;stroke-width:2.5;stroke-linecap:butt;stroke-linejoin:miter;stroke:rgb(0%,0%,0%);stroke-opacity:1;stroke-miterlimit:10;" d="M 164.214844 76.125 L 189.214844 76.125 "/>
<path style="fill:none;stroke-width:2.5;stroke-linecap:butt;stroke-linejoin:miter;stroke:rgb(0%,0%,0%);stroke-opacity:1;stroke-miterlimit:10;" d="M 176.714844 76.125 L 176.714844 106.125 "/>
<path style="fill:none;stroke-width:2.5;stroke-linecap:butt;stroke-linejoin:miter;stroke:rgb(0%,0%,0%);stroke-opacity:1;stroke-miterlimit:10;" d="M 176.714844 106.125 L 176.714844 112.375 "/>
<path style="fill:none;stroke-width:2.5;stroke-linecap:butt;stroke-linejoin:miter;stroke:rgb(0%,0%,0%);stroke-opacity:1;stroke-miterlimit:10;" d="M 75.464844 34.875 L 94.214844 34.875 "/>
<path style="fill-rule:evenodd;fill:rgb(100%,100%,100%);fill-opacity:1;stroke-width:2.5;stroke-linecap:butt;stroke-linejoin:miter;stroke:rgb(0%,0%,0%);stroke-opacity:1;stroke-miterlimit:10;" d="M 94.214844 22.375 L 131.714844 22.375 L 131.714844 47.375 L 94.214844 47.375 Z M 94.214844 22.375 "/>
<path style="fill:none;stroke-width:2.5;stroke-linecap:butt;stroke-linejoin:miter;stroke:rgb(0%,0%,0%);stroke-opacity:1;stroke-miterlimit:10;" d="M 131.714844 34.875 L 150.464844 34.875 "/>
<path style="fill:none;stroke-width:2.5;stroke-linecap:butt;stroke-linejoin:miter;stroke:rgb(0%,0%,0%);stroke-opacity:1;stroke-miterlimit:10;" d="M 150.464844 34.875 L 174.882812 33.859375 "/>
<path style="fill:none;stroke-width:2.5;stroke-linecap:butt;stroke-linejoin:miter;stroke:rgb(0%,0%,0%);stroke-opacity:1;stroke-miterlimit:10;" d="M 165.445312 40.507812 L 177.671875 33.738281 L 164.921875 28.015625 "/>
<path style=" stroke:none;fill-rule:nonzero;fill:rgb(0%,0%,0%);fill-opacity:1;" d="M 113.921875 56.828125 C 114.273438 56.945312 114.609375 57.191406 114.9375 57.570312 C 115.257812 57.949219 115.585938 58.46875 115.914062 59.132812 L 117.535156 62.375 L 115.816406 62.375 L 114.292969 59.328125 C 113.902344 58.535156 113.519531 58.011719 113.160156 57.765625 C 112.792969 57.503906 112.289062 57.375 111.65625 57.375 L 109.917969 57.375 L 109.917969 62.375 L 108.316406 62.375 L 108.316406 50.519531 L 111.929688 50.519531 C 113.28125 50.519531 114.292969 50.804688 114.957031 51.378906 C 115.621094 51.9375 115.953125 52.792969 115.953125 53.9375 C 115.953125 54.679688 115.777344 55.296875 115.425781 55.792969 C 115.082031 56.289062 114.585938 56.632812 113.921875 56.828125 Z M 109.917969 51.847656 L 109.917969 56.046875 L 111.929688 56.046875 C 112.695312 56.046875 113.277344 55.871094 113.667969 55.519531 C 114.066406 55.15625 114.273438 54.628906 114.273438 53.9375 C 114.273438 53.246094 114.066406 52.726562 113.667969 52.375 C 113.277344 52.023438 112.695312 51.847656 111.929688 51.847656 Z M 109.917969 51.847656 "/>
</g>
</svg>
